<svg xmlns="http://www.w3.org/2000/svg" viewBox="0 0 960 540" fill="none" stroke="#1a1a1a" stroke-width="2" stroke-linecap="round" stroke-linejoin="round">
  <rect width="960" height="540" fill="#e8f4fc"/>
  <line x1="0" y1="420" x2="960" y2="420" stroke-width="3"/>
  <rect x="40" y="280" width="80" height="140" fill="#fff" stroke="#1a1a1a"/>
  <rect x="55" y="300" width="20" height="25" fill="none"/>
  <rect x="85" y="300" width="20" height="25" fill="none"/>
  <rect x="55" y="340" width="20" height="25" fill="none"/>
  <rect x="85" y="340" width="20" height="25" fill="none"/>
  <rect x="140" y="220" width="100" height="200" fill="#fff" stroke="#1a1a1a"/>
  <rect x="160" y="240" width="25" height="30" fill="none"/>
  <rect x="195" y="240" width="25" height="30" fill="none"/>
  <rect x="160" y="290" width="25" height="30" fill="none"/>
  <rect x="195" y="290" width="25" height="30" fill="none"/>
  <rect x="260" y="180" width="90" height="240" fill="#fff" stroke="#1a1a1a"/>
  <rect x="370" y="250" width="120" height="170" fill="#fff" stroke="#1a1a1a"/>
  <rect x="510" y="200" width="85" height="220" fill="#fff" stroke="#1a1a1a"/>
  <rect x="620" y="160" width="110" height="260" fill="#fff" stroke="#1a1a1a"/>
  <rect x="750" y="230" width="95" height="190" fill="#fff" stroke="#1a1a1a"/>
  <rect x="870" y="270" width="70" height="150" fill="#fff" stroke="#1a1a1a"/>
  <line x1="0" y1="460" x2="960" y2="460" stroke="#aaa" stroke-width="1" stroke-dasharray="8 6"/>
  <text x="480" y="80" text-anchor="middle" font-family="Fredoka, sans-serif" font-size="28" fill="#1a1a1a" stroke="none">The Big City</text>
</svg>
