<svg xmlns="http://www.w3.org/2000/svg" viewBox="0 0 120 100" fill="none" stroke="#1a1a1a" stroke-width="2.5" stroke-linecap="round" stroke-linejoin="round">
  <ellipse cx="68" cy="90" rx="30" ry="5" fill="#1a1a1a" opacity="0.08" stroke="none"/>
  <path d="M92 62 Q98 52 90 44 Q82 36 68 34 Q54 32 46 40 Q40 48 42 58" fill="#1a1a1a" stroke="#1a1a1a"/>
  <path d="M42 58 L28 66" fill="none" stroke="#1a1a1a"/>
  <circle cx="52" cy="42" r="5" fill="#fff" stroke="#1a1a1a"/>
  <circle cx="50" cy="42" r="2" fill="#1a1a1a" stroke="none"/>
  <path d="M46 48 Q42 50 40 48" fill="none" stroke="#fff"/>
  <path d="M86 62 L92 72 M80 64 L86 74 M72 66 L78 76 M64 64 L70 74" fill="none" stroke="#1a1a1a"/>
  <path d="M70 34 Q72 22 66 16 Q62 10 56 14" fill="#1a1a1a" stroke="#1a1a1a"/>
  <path d="M58 32 Q54 18 48 14" fill="#1a1a1a" stroke="#1a1a1a"/>
</svg>
