<svg xmlns="http://www.w3.org/2000/svg" viewBox="0 0 100 110" fill="none" stroke="#1a1a1a" stroke-width="2.5" stroke-linecap="round" stroke-linejoin="round">
  <ellipse cx="50" cy="102" rx="22" ry="4" fill="#ffd966" opacity="0.35" stroke="none"/>
  <path d="M18 62 Q8 48 14 34 Q20 22 32 28" fill="#f4c542" stroke="#1a1a1a"/>
  <ellipse cx="52" cy="72" rx="22" ry="16" fill="#ffd966" stroke="#1a1a1a"/>
  <circle cx="58" cy="38" r="24" fill="#ffe066" stroke="#1a1a1a"/>
  <ellipse cx="78" cy="34" rx="10" ry="14" fill="#ffe066" stroke="#1a1a1a"/>
  <circle cx="48" cy="36" r="6" fill="#fff" stroke="#1a1a1a"/>
  <circle cx="66" cy="36" r="6" fill="#fff" stroke="#1a1a1a"/>
  <circle cx="49" cy="35" r="2.5" fill="#1a1a1a" stroke="none"/>
  <circle cx="67" cy="35" r="2.5" fill="#1a1a1a" stroke="none"/>
  <ellipse cx="62" cy="44" rx="5" ry="4" fill="#1a1a1a" stroke="none"/>
  <path d="M34 78 L28 98 M46 82 L44 100 M58 82 L60 100 M70 78 L76 96" fill="none" stroke="#1a1a1a" stroke-width="3"/>
  <path d="M82 52 Q94 58 90 72" fill="none" stroke="#1a1a1a" stroke-width="3"/>
</svg>
