<svg xmlns="http://www.w3.org/2000/svg" viewBox="0 0 200 240" fill="none">
  <ellipse cx="100" cy="200" rx="70" ry="12" fill="#000" opacity="0.15"/>
  <path d="M55 95 L45 55 L70 80 Z" fill="#f4a460"/>
  <path d="M145 95 L155 55 L130 80 Z" fill="#f4a460"/>
  <ellipse cx="100" cy="130" rx="65" ry="75" fill="#f4a460"/>
  <ellipse cx="100" cy="145" rx="45" ry="55" fill="#fff5e6"/>
  <circle cx="78" cy="112" r="14" fill="#fff" stroke="#2d3436" stroke-width="3"/>
  <circle cx="122" cy="112" r="14" fill="#fff" stroke="#2d3436" stroke-width="3"/>
  <circle cx="78" cy="112" r="5" fill="#2d3436"/>
  <circle cx="122" cy="112" r="5" fill="#2d3436"/>
  <ellipse cx="100" cy="128" rx="6" ry="4" fill="#ffb8b8"/>
  <ellipse cx="100" cy="148" rx="10" ry="12" fill="#2d3436"/>
  <path d="M40 175 Q30 200 50 210" stroke="#f4a460" stroke-width="14" fill="none" stroke-linecap="round"/>
  <path d="M160 175 Q170 200 150 210" stroke="#f4a460" stroke-width="14" fill="none" stroke-linecap="round"/>
  <path d="M70 205 L70 225 M90 205 L90 228 M110 205 L110 228 M130 205 L130 225" stroke="#f4a460" stroke-width="8" stroke-linecap="round"/>
  <path d="M130 160 Q170 140 175 100" stroke="#f4a460" stroke-width="10" fill="none" stroke-linecap="round"/>
</svg>
