<svg xmlns="http://www.w3.org/2000/svg" viewBox="0 0 200 240" fill="none" stroke="#1a1a1a" stroke-width="2.5" stroke-linecap="round" stroke-linejoin="round">
  <ellipse cx="100" cy="200" rx="70" ry="12" fill="#1a1a1a" opacity="0.12"/>
  <path d="M55 95 L45 55 L70 80 Z" fill="#1a1a1a" stroke="#1a1a1a"/>
  <path d="M145 95 L155 55 L130 80 Z" fill="#1a1a1a" stroke="#1a1a1a"/>
  <ellipse cx="100" cy="130" rx="65" ry="75" fill="#1a1a1a" stroke="#1a1a1a"/>
  <circle cx="78" cy="115" r="10" fill="#fff" stroke="#1a1a1a"/>
  <circle cx="122" cy="115" r="10" fill="#fff" stroke="#1a1a1a"/>
  <circle cx="81" cy="112" r="3" fill="#1a1a1a"/>
  <circle cx="125" cy="112" r="3" fill="#1a1a1a"/>
  <path d="M88 140 Q100 150 112 140" stroke="#fff" stroke-width="3" fill="none"/>
  <path d="M40 175 Q30 200 50 210" stroke="#1a1a1a" stroke-width="14" fill="none"/>
  <path d="M160 175 Q170 200 150 210" stroke="#1a1a1a" stroke-width="14" fill="none"/>
  <path d="M70 205 L70 225 M90 205 L90 228 M110 205 L110 228 M130 205 L130 225" stroke="#1a1a1a" stroke-width="8"/>
  <path d="M130 160 Q170 140 175 100" stroke="#1a1a1a" stroke-width="10" fill="none"/>
</svg>
