<svg xmlns="http://www.w3.org/2000/svg" viewBox="0 0 120 100" fill="none" stroke="#1a1a1a" stroke-width="2.5" stroke-linecap="round" stroke-linejoin="round">
  <ellipse cx="52" cy="90" rx="30" ry="5" fill="#1a1a1a" opacity="0.08" stroke="none"/>
  <path d="M28 62 Q22 52 30 44 Q38 36 52 34 Q66 32 74 40 Q80 48 78 58" fill="#1a1a1a" stroke="#1a1a1a"/>
  <path d="M78 58 L92 66" fill="none" stroke="#1a1a1a"/>
  <circle cx="68" cy="42" r="5" fill="#fff" stroke="#1a1a1a"/>
  <circle cx="70" cy="42" r="2" fill="#1a1a1a" stroke="none"/>
  <path d="M74 48 Q78 50 80 48" fill="none" stroke="#fff"/>
  <path d="M34 62 L28 72 M40 64 L34 74 M48 66 L42 76 M56 64 L50 74" fill="none" stroke="#1a1a1a"/>
  <path d="M50 34 Q48 22 54 16 Q58 10 64 14" fill="#1a1a1a" stroke="#1a1a1a"/>
  <path d="M62 32 Q66 18 72 14" fill="#1a1a1a" stroke="#1a1a1a"/>
</svg>
